<?xml version="1.0" standalone="no"?>
<!DOCTYPE svg PUBLIC "-//W3C//DTD SVG 20010904//EN"
 "http://www.w3.org/TR/2001/REC-SVG-20010904/DTD/svg10.dtd">
<svg version="1.0" xmlns="http://www.w3.org/2000/svg"
 width="96.000000pt" height="96.000000pt" viewBox="0 0 96.000000 96.000000"
 preserveAspectRatio="xMidYMid meet">
<metadata>
Created by potrace 1.14, written by Peter Selinger 2001-2017
</metadata>
<g transform="translate(0.000000,96.000000) scale(0.100000,-0.100000)"
fill="#000000" stroke="none">
<path d="M615 857 c-27 -4 -95 -10 -150 -11 -55 -2 -113 -9 -130 -15 -25 -10
-31 -10 -41 4 -10 13 -19 11 -80 -20 -100 -52 -147 -137 -158 -288 0 -10 -12
-25 -26 -32 -23 -13 -23 -14 -4 -15 36 0 37 -14 2 -26 -31 -12 -30 -13 14 -18
7 0 14 -17 15 -36 6 -83 39 -155 73 -160 48 -7 94 36 83 78 -7 30 -18 27 -33
-8 -34 -83 -75 35 -43 125 17 49 48 82 92 101 44 18 46 18 48 -8 1 -11 7 -24
13 -28 13 -8 -4 -293 -21 -346 -16 -53 -13 -55 43 -52 l53 3 -3 35 c-2 19 3
62 10 95 l13 60 6 -45 c10 -62 39 -140 53 -140 16 1 40 21 61 53 18 27 18 29
-4 58 l-23 31 22 67 22 67 44 -10 c38 -9 46 -15 56 -46 17 -52 14 -144 -6
-175 -26 -40 -15 -55 43 -55 27 0 53 5 56 10 3 6 7 47 9 93 1 60 7 89 20 110
l19 28 19 -28 c31 -47 50 -126 38 -158 -14 -38 -3 -47 56 -43 42 3 49 6 52 26
2 13 -4 44 -13 70 -19 53 -37 276 -24 307 7 17 8 16 9 -10 2 -52 10 -96 19
-112 12 -22 4 229 -9 262 -20 53 -81 135 -119 160 -58 39 -116 53 -176 42z"/>
<path d="M922 350 c-15 -24 -16 -66 -2 -75 6 -3 10 -1 10 5 0 6 7 18 15 26 18
19 19 38 2 52 -9 8 -16 6 -25 -8z"/>
</g>
</svg>
